<svg viewBox="0 0 500 500" xmlns="http://www.w3.org/2000/svg"><circle style="paint-order:fill;stroke:#fff;fill:#fff" cx="250" cy="250" r="224.496"/><path d="M271.907 112.087c-20 3.8-36.1 12.1-50.6 25.9-9.1 8.8-15 17-20 27.8-5.5 11.7-7.4 20.2-7.5 33.3-.1 19.3 4.5 29.2 28.2 60.8 8 10.6 15.4 21.2 16.5 23.7 1.4 3 2 6.8 2.1 11.5.1 14.3-7.5 21.2-31.4 28.5-26.5 8.2-35.3 17.2-35.4 36-.1 7.3.3 9.3 2.5 13.5 3.3 6.4 9.2 10.9 18.2 13.7 6.1 1.9 9.3 2.3 21.2 2.2 12.2-.1 15.2-.5 22.9-2.8 32.1-9.7 59.1-32.4 73.6-61.9 5.9-12 7.9-19.1 8.7-30.8 1-15.4-2.8-28.7-11.6-39.7-2.3-2.8-9.4-9.4-15.9-14.5-12.5-10-18-15.6-20.8-20.9-2.5-4.9-3-15.3-.9-22.4 1.4-5 2.6-6.9 7.9-11.9 3.4-3.3 10-8.2 14.7-10.9 19.2-11.1 22.6-13.3 26.1-16.8 4.3-4.3 5.8-8.8 5.8-17.9 0-12.4-7.3-21.5-20.3-25.4-7.5-2.3-24.5-2.8-34-1z"/></svg>